<svg xmlns="http://www.w3.org/2000/svg" width="170.589" height="70.808" viewBox="0 0 170.589 70.808">
  <g id="AREA" transform="translate(-193.705 -357.596)">
    <g id="Grupo_3663" data-name="Grupo 3663">
      <g id="Grupo_3662" data-name="Grupo 3662" transform="translate(0 16.5)">
        <path id="Trazado_4387" data-name="Trazado 4387" d="M63,24.063,96,0" transform="translate(131.5 341.5)" fill="none" stroke="#cecece" stroke-width="1"/>
        <path id="Trazado_4386" data-name="Trazado 4386" d="M49.5,33.906,96,0" transform="translate(145.5 341.5)" fill="none" stroke="#cecece" stroke-width="1"/>
        <path id="Trazado_4385" data-name="Trazado 4385" d="M34.5,44.844,96,0" transform="translate(159.5 341.5)" fill="none" stroke="#cecece" stroke-width="1"/>
        <path id="Trazado_4384" data-name="Trazado 4384" d="M21,54.688,96,0" transform="translate(173.5 341.5)" fill="none" stroke="#cecece" stroke-width="1"/>
        <path id="Trazado_4383" data-name="Trazado 4383" d="M7.5,64.531,96,0" transform="translate(187.5 341.5)" fill="none" stroke="#cecece" stroke-width="1"/>
        <line id="Línea_108" data-name="Línea 108" y1="70" x2="96" transform="translate(201.5 341.5)" fill="none" stroke="#cecece" stroke-width="1"/>
        <line id="Línea_109" data-name="Línea 109" y1="70" x2="96" transform="translate(215.5 341.5)" fill="none" stroke="#cecece" stroke-width="1"/>
        <line id="Línea_110" data-name="Línea 110" y1="70" x2="96" transform="translate(229.5 341.5)" fill="none" stroke="#cecece" stroke-width="1"/>
        <line id="Línea_111" data-name="Línea 111" y1="70" x2="96" transform="translate(243.5 341.5)" fill="none" stroke="#cecece" stroke-width="1"/>
        <line id="Línea_112" data-name="Línea 112" y1="70" x2="96" transform="translate(257.5 341.5)" fill="none" stroke="#cecece" stroke-width="1"/>
        <path id="Trazado_4382" data-name="Trazado 4382" d="M0,70,91.5,3.281" transform="translate(271.5 341.5)" fill="none" stroke="#cecece" stroke-width="1"/>
        <path id="Trazado_4381" data-name="Trazado 4381" d="M0,70,77.25,13.672" transform="translate(285.5 341.5)" fill="none" stroke="#cecece" stroke-width="1"/>
        <path id="Trazado_4380" data-name="Trazado 4380" d="M0,70,63.75,23.516" transform="translate(299.5 341.5)" fill="none" stroke="#cecece" stroke-width="1"/>
        <path id="Trazado_4379" data-name="Trazado 4379" d="M0,70,49.5,33.906" transform="translate(313.5 341.5)" fill="none" stroke="#cecece" stroke-width="1"/>
        <path id="Trazado_4378" data-name="Trazado 4378" d="M0,70,36,43.75" transform="translate(327.5 341.5)" fill="none" stroke="#cecece" stroke-width="1"/>
        <path id="Trazado_4377" data-name="Trazado 4377" d="M0,70,22.5,53.594" transform="translate(341.5 341.5)" fill="none" stroke="#cecece" stroke-width="1"/>
        <path id="Trazado_4388" data-name="Trazado 4388" d="M76.922,13.911,96,0" transform="translate(117.5 341.5)" fill="none" stroke="#cecece" stroke-width="1"/>
      </g>
      <g id="Rectángulo_2504" data-name="Rectángulo 2504" transform="translate(194 358)" fill="rgba(255,255,255,0)" stroke="#fff" stroke-width="1">
        <rect width="170" height="70" stroke="none"/>
        <rect x="0.5" y="0.5" width="169" height="69" fill="none"/>
      </g>
    </g>
  </g>
</svg>
